<svg width="22" height="16" viewBox="0 0 22 16" fill="none" xmlns="http://www.w3.org/2000/svg">
<path d="M4.24995 0C2.44995 0 0.949951 1.5 0.949951 3.3V12.8C0.949951 14.5 2.44995 16 4.24995 16H17.75C19.5499 16 21.05 14.5 21.05 12.7V3.3C20.95 1.5 19.45 0 17.75 0H4.24995ZM4.24995 1.5H17.75C18.75 1.5 19.55 2.3 19.55 3.3V3.9L10.95 8.4L2.44995 3.8V3.3C2.44995 2.3 3.24995 1.5 4.24995 1.5ZM2.44995 5.5L10.55 9.9C10.75 10 11.05 10 11.25 9.9L19.35 5.5V12.7C19.35 13.7 18.55 14.5 17.55 14.5H4.24995C3.24995 14.5 2.44995 13.7 2.44995 12.7V5.5Z" fill="#212629"/>
</svg>
