<svg width="22" height="22" viewBox="0 0 22 22" fill="none" xmlns="http://www.w3.org/2000/svg">
<path d="M17.1814 0.993652C16.7814 0.993652 16.4814 1.29365 16.4814 1.79365C16.4814 1.99365 16.5814 2.19365 16.6814 2.29365L18.3814 3.99365H12.6814C12.2814 3.99365 11.9814 4.29365 11.9814 4.69365C11.9814 5.09365 12.2814 5.49365 12.6814 5.49365H18.3814L16.6814 7.19365C16.3814 7.49365 16.3814 7.99365 16.6814 8.29365C16.9814 8.59365 17.4814 8.59365 17.7814 8.29365L20.7814 5.29365C21.0814 4.99365 21.0814 4.49365 20.7814 4.19365L17.7814 1.19365C17.5814 1.09365 17.3814 0.993652 17.1814 0.993652ZM5.98145 0.993652C5.68145 0.993652 5.38144 0.993652 4.98145 1.09365L3.78145 1.49365C2.58144 1.79365 1.58145 2.79365 1.28145 4.09365C0.481445 6.89365 1.38144 10.1937 3.58144 13.9937C5.78145 17.6937 8.28145 20.0937 11.0814 20.8937C12.3814 21.1937 13.7814 20.8937 14.6814 19.9937L15.5814 19.1937C16.5814 18.2937 16.7814 16.6937 15.8814 15.5937L14.5814 13.7937C13.8814 12.8937 12.6814 12.3937 11.4814 12.7937L9.48145 13.3937C9.38144 13.3937 9.18145 13.2937 8.98145 13.1937C8.68145 12.8937 8.18145 12.3937 7.78145 11.5937C7.38145 10.6937 7.18145 10.0937 7.08145 9.79365C6.98145 9.39365 6.98145 9.39365 6.98145 9.29365C6.98145 9.19365 6.98145 9.19365 7.08145 9.19365L8.58145 7.79365C9.48145 6.99365 9.78145 5.69365 9.28145 4.59365L8.38145 2.59365C7.88145 1.69365 6.98145 1.09365 5.98145 0.993652ZM5.88145 2.49365C6.38145 2.49365 6.78145 2.79365 6.98145 3.19365L7.88145 5.19365C8.08145 5.69365 7.98145 6.19365 7.58145 6.59365L6.08145 7.99365C5.78145 8.29365 5.58145 8.69365 5.48145 9.09365C5.48145 9.19365 5.48145 9.59365 5.58145 10.0937C5.68145 10.5937 5.98145 11.2937 6.58145 12.1937C7.08145 13.0937 7.58145 13.6937 8.08145 14.1937C8.28145 14.3937 8.98145 15.0937 9.98145 14.7937L11.9814 14.1937C12.4814 13.9937 13.0814 14.1937 13.3814 14.6937L14.6814 16.4937C15.0814 16.9937 14.9814 17.6937 14.4814 18.0937L13.5814 18.8937C12.9814 19.3937 12.1814 19.5937 11.3814 19.3937C9.08144 18.7937 6.78145 16.6937 4.78145 13.1937C2.78145 9.69365 2.08145 6.69365 2.68145 4.49365C2.88145 3.79365 3.48145 3.09365 4.28145 2.89365L5.48145 2.49365C5.58145 2.49365 5.78145 2.49365 5.88145 2.49365Z" fill="#212629"/>
</svg>
