<svg width="24" height="18" viewBox="0 0 24 18" fill="none" xmlns="http://www.w3.org/2000/svg">
<path d="M15.7456 0.800049H15.6456H13.2456C12.8456 0.800049 12.4456 1.10005 12.4456 1.50005C12.4456 1.90005 12.7456 2.30005 13.1456 2.30005H15.0456C15.3456 3.00005 15.9456 5.10005 15.9456 7.60005C15.9456 8.90005 15.6456 9.80005 15.3456 10.2C15.0456 10.7 14.6456 10.8 14.1456 10.8H10.7456C10.2456 10.8 9.94556 10.5 9.94556 10.1V8.10005V2.60005C9.94556 2.10005 9.64556 1.80005 9.24556 1.80005H6.34556H6.24556H6.14556H3.24556C2.74556 1.80005 2.44556 2.10005 2.44556 2.60005V7.40005H1.74556C1.24556 7.30005 0.945557 7.60005 0.945557 8.00005C0.945557 8.50005 1.24556 8.80005 1.64556 8.80005H2.54556C2.24556 9.40005 1.94556 10.2 1.94556 11.1C1.94556 11.3 2.04556 11.5 2.14556 11.6C2.14556 11.6 2.64556 12.2 3.54556 12.9C3.24556 13.4 2.94556 13.9 2.94556 14.5C2.94556 16 4.14556 17.2 5.74556 17.2C7.04556 17.2 8.14556 16.3 8.44556 15.1C8.84556 15.2 9.24556 15.2 9.64556 15.2H16.6456C16.9456 16.3 18.0456 17.2 19.2456 17.2C20.7456 17.2 22.0456 16 22.0456 14.5C22.0456 14.3 22.0456 14.1 21.9456 13.9L22.8456 13C23.0456 12.8 23.1456 12.4 22.9456 12.1C22.9456 12.1 21.9456 10.3 19.9456 9.80005C19.8456 7.00005 18.8456 4.70005 17.9456 3.10005H18.7456C18.8456 3.10005 19.0456 3.00005 19.0456 2.80005V1.60005C19.0456 1.50005 18.9456 1.30005 18.7456 1.30005H17.3456C17.1456 1.30005 16.8456 1.40005 16.7456 1.50005C16.5456 1.20005 16.4456 1.10005 16.3456 1.00005C16.0456 0.900049 15.9456 0.800049 15.7456 0.800049ZM3.94556 3.30005H5.44556V4.60005C5.44556 5.00005 5.74556 5.40005 6.14556 5.40005C6.64556 5.30005 6.94556 5.00005 6.94556 4.60005V3.30005H8.44556V7.30005H4.34556C4.24556 7.30005 4.24556 7.30005 4.14556 7.30005H3.94556V3.30005ZM17.3456 5.40005C17.9456 6.80005 18.4456 8.60005 18.4456 10.6C18.4456 11 18.7456 11.3 19.2456 11.4C20.3456 11.4 20.9456 12.1 21.2456 12.6L20.9456 12.8C20.8456 12.8 20.7456 12.8 20.7456 12.8H18.7456C17.9456 12.8 17.3456 13.2 16.9456 13.6C16.8456 13.7 16.8456 13.7 16.8456 13.8H9.54556C6.34556 13.8 3.84556 11.2 3.54556 10.8C3.64556 9.70005 4.24556 9.00005 4.54556 8.80005H8.54556V10.1C8.54556 11.3 9.54556 12.4 10.8456 12.4H14.3456C15.2456 12.4 16.1456 12 16.7456 11.1C17.3456 10.3 17.6456 9.10005 17.6456 7.60005C17.4456 6.80005 17.4456 6.10005 17.3456 5.40005ZM4.74556 13.8C5.34556 14.2 6.14556 14.6 6.94556 14.8C6.84556 15.4 6.34556 15.8 5.74556 15.8C5.04556 15.8 4.44556 15.2 4.44556 14.5C4.44556 14.3 4.54556 14 4.74556 13.8ZM18.7456 14.3H20.4456C20.4456 14.4 20.4456 14.5 20.4456 14.6C20.4456 15.3 19.8456 15.9 19.1456 15.9C18.4456 15.9 17.9456 15.4 17.9456 14.8C17.9456 14.8 17.9456 14.7 18.0456 14.7C18.1456 14.4 18.2456 14.3 18.7456 14.3Z" fill="#212629"/>
</svg>
