<svg width="22" height="20" viewBox="0 0 22 20" fill="none" xmlns="http://www.w3.org/2000/svg">
<path d="M4.99056 0.5C3.69056 0.5 2.59056 1.4 1.99056 2.7C1.39056 4 0.990563 5.6 0.990563 7.5C0.990563 9.3 1.39056 10.9 2.09056 12.3C2.19056 12.4 2.29056 12.5 2.29056 12.6C1.69056 13.2 1.19056 13.7 1.19056 13.7C0.890563 13.9 0.790563 14.4 1.09056 14.8C1.29056 15.1 1.79056 15.2 2.19056 14.9C2.19056 14.9 2.69056 14.4 3.39056 13.8C4.09056 14.2 4.89056 14.5 5.79056 14.5C7.59056 14.5 9.39056 13.6 10.7906 12.3C11.2906 12.7 11.8906 13 12.5906 13C13.4906 13 14.1906 12.5 14.6906 12C15.1906 11.5 15.5906 10.8 15.8906 10.1C16.0906 9.7 16.1906 9.4 16.2906 9.1C16.2906 9.2 16.2906 9.3 16.2906 9.4C16.3906 9.9 16.3906 10.5 16.5906 10.9C16.6906 11.1 16.7906 11.4 16.9906 11.6C17.1906 11.8 17.5906 12 17.8906 12C18.3906 12 18.7906 11.7 18.9906 11.4C19.1906 11.1 19.2906 10.8 19.4906 10.5C19.7906 9.9 19.9906 9.3 20.5906 8.8C20.8906 8.5 20.9906 8.1 20.6906 7.7C20.3906 7.3 19.9906 7.3 19.5906 7.6C18.6906 8.3 18.2906 9.2 17.9906 9.8C17.8906 10 17.8906 10.1 17.7906 10.2C17.6906 9.9 17.5906 9.5 17.5906 9.1C17.4906 8.6 17.4906 8.1 17.3906 7.7C17.3906 7.5 17.2906 7.3 17.1906 7C17.2906 6.8 16.9906 6.5 16.4906 6.5C15.9906 6.5 15.7906 6.8 15.5906 7C15.3906 7.2 15.3906 7.5 15.2906 7.7C15.0906 8.2 14.7906 8.8 14.5906 9.4C14.2906 10 13.9906 10.6 13.5906 10.9C13.2906 11.3 12.8906 11.4 12.5906 11.4C12.2906 11.4 12.0906 11.3 11.7906 11.2C13.0906 9.8 13.9906 8.1 13.9906 6.5C13.9906 6 13.7906 5.4 13.4906 4.9C13.0906 4.4 12.4906 4 11.7906 4C10.7906 4 9.99056 4.6 9.59056 5.3C9.19056 6.1 8.99056 7.1 8.99056 8.3C8.99056 9.2 9.19056 10.3 9.69056 11.2C8.49056 12.3 7.09056 13.1 5.69056 13.1C5.19056 13.1 4.69056 13 4.39056 12.7C6.09056 10.7 7.99056 7.8 7.99056 4.3C7.99056 3.7 7.89056 2.8 7.39056 2.1C6.89056 1.4 6.19056 0.5 4.99056 0.5ZM4.99056 2C5.59056 2 5.89056 2.3 6.09056 2.7C6.39056 3.2 6.49056 3.8 6.49056 4.2C6.49056 7 4.89056 9.6 3.39056 11.4C2.89056 10.4 2.49056 9 2.49056 7.5C2.49056 5.7 2.79056 4.3 3.29056 3.3C3.79056 2.3 4.29056 2 4.99056 2ZM11.7906 5.5C12.0906 5.5 12.1906 5.6 12.2906 5.8C12.3906 6 12.4906 6.3 12.4906 6.5C12.4906 7.4 11.7906 8.7 10.8906 9.9C10.6906 9.4 10.4906 8.8 10.4906 8.3C10.4906 7.3 10.6906 6.5 10.8906 6.1C11.1906 5.6 11.3906 5.5 11.7906 5.5ZM1.79056 18C1.39056 18 0.990563 18.3 0.990563 18.7C0.990563 19.2 1.29056 19.5 1.79056 19.5H20.2906C20.6906 19.5 21.0906 19.2 21.0906 18.8C21.0906 18.4 20.7906 18 20.3906 18H1.79056Z" fill="#212629"/>
</svg>
