<svg width="36" height="36" viewBox="0 0 36 36" fill="none" xmlns="http://www.w3.org/2000/svg">
<path d="M17.7003 35.4318C13.0671 35.4359 8.62235 33.5972 5.34613 30.321C2.0699 27.0448 0.23119 22.6001 0.235359 17.9668V17.6175C0.378201 10.6179 4.68508 4.37929 11.1795 1.76462C17.674 -0.850056 25.1021 0.664031 30.0551 5.61205C35.0543 10.6072 36.5506 18.1228 33.8455 24.6517C31.1405 31.1806 24.7675 35.4359 17.7003 35.4318ZM17.7003 20.4293L22.2238 24.9528L24.6863 22.4902L20.1629 17.9668L24.6863 13.4433L22.2238 10.9808L17.7003 15.5042L13.1769 10.9808L10.7144 13.4433L15.2378 17.9668L10.7144 22.4902L13.1769 24.9528L17.7003 20.4311V20.4293Z" fill="#F00505"/>
</svg>
