<svg width="74" height="28" viewBox="0 0 74 28" fill="none" xmlns="http://www.w3.org/2000/svg">
<path d="M9.74209 9.80902C10.4442 8.40173 10.8877 7.13877 10.9247 6.27275C10.9616 5.37064 10.7029 4.86546 10.0008 4.86546C9.29862 4.86546 8.44865 5.83974 7.59867 7.49962C6.71174 9.12342 5.97263 11.3607 5.49221 13.9226C5.01179 16.3042 4.82702 18.4693 5.01179 20.1292C5.15962 21.753 5.67699 22.7272 6.56392 22.7272C7.30303 22.7272 8.00518 21.9695 8.44865 20.8869C8.89211 19.7683 9.03994 18.4332 8.74429 17.2785C8.70734 16.9898 9.22471 16.8094 9.92687 16.8094C10.666 16.8094 11.5529 17.0259 12.292 17.495C13.0681 17.9641 13.6594 18.7219 13.6594 19.8405C13.7702 21.6447 12.9942 23.5572 11.6268 24.9645C10.2595 26.3718 8.37474 27.3821 6.12046 27.3821C3.86618 27.3821 2.09232 26.1553 1.02061 23.918C-0.0510979 21.6808 -0.309786 18.4332 0.392367 14.3557C1.24234 9.77294 2.94229 6.41709 4.97484 4.14377C7.00739 1.87045 9.40949 0.751831 11.5899 0.751831C13.2898 0.751831 14.5463 1.58177 15.2854 2.80864C16.0245 4.0716 16.2462 5.65931 15.8397 7.17486C15.4332 8.43781 14.6572 9.26776 13.6963 9.70077C12.7724 10.1699 11.7007 10.3142 10.9247 10.2781C10.1856 10.206 9.63122 10.0616 9.74209 9.80902Z" fill="white"/>
<path d="M35.5003 25.8668C33.6525 25.5781 32.1743 24.6399 31.2135 23.1604C30.2896 21.7531 29.8461 19.8407 30.2526 17.6395C30.5113 15.9796 31.0656 14.7167 31.7308 13.7424C31.5461 13.7424 31.2874 13.7785 31.1026 13.7785C30.2526 13.7785 29.4396 13.7424 28.5896 13.7063C28.7374 14.6806 28.7744 15.6909 28.6635 16.9178C28.3679 19.6963 27.2592 22.0418 25.5593 23.6656C23.9702 25.2894 21.8268 26.1193 19.6464 25.8307C17.8356 25.542 16.4313 24.6399 15.5813 23.1604C14.6944 21.7531 14.3618 19.8046 14.6944 17.6034C14.99 15.5105 16.0248 14.1032 17.2074 13.165C18.3899 12.2629 19.6095 11.866 20.3486 11.866C21.6051 11.866 22.3072 12.5155 22.2702 13.2372C22.1594 13.3815 21.5681 13.7424 20.9768 14.3558C20.3486 14.9693 19.6095 15.8353 19.2769 17.0982C18.8703 18.5055 18.9443 19.8767 19.2769 20.7788C19.6095 21.7531 20.2377 22.2944 21.0877 22.2944C21.9377 22.2944 22.7507 21.6449 23.3789 20.7067C24.0811 19.6963 24.5615 18.3973 24.6354 16.99C24.7463 15.7631 24.6354 14.2115 24.3028 12.9485L24.2658 12.7681C22.8615 12.1908 21.7898 11.2165 21.3833 10.2422C20.9768 9.26792 21.3464 8.40189 22.6768 8.00496C23.8593 7.6802 25.4854 8.22147 26.7788 9.70093C26.9266 9.88135 27.0745 10.0979 27.2223 10.2783C27.6657 10.4226 28.1092 10.5309 28.5157 10.567C29.8092 10.8195 31.2874 10.9639 32.6547 11C33.9482 11.0361 35.2047 11.0721 36.0546 11.0721H36.0916C37.385 11.1082 38.235 11.8299 38.1241 12.6599C37.9763 12.8042 37.2742 13.2733 36.572 13.9589C35.8329 14.6806 35.0568 15.727 34.7612 17.1343C34.4286 18.686 34.5395 19.985 34.8721 20.8871C35.2786 21.8614 35.9438 22.3305 36.8307 22.3305C37.7176 22.3305 38.6785 21.5005 39.4176 20.2376C40.1567 18.9746 40.6741 17.1704 40.6741 15.1858C40.6741 12.9124 39.9349 11.4691 38.8263 10.4948C38.235 9.95352 37.4959 9.73701 36.7937 9.62876C36.0916 9.52051 35.5373 9.55659 35.4264 9.44834C34.9829 9.19575 35.2416 8.43797 36.7568 7.46369C37.4589 6.9946 38.5676 6.742 39.5654 6.742C41.3023 6.742 42.8544 7.53586 43.8522 8.90707C44.9239 10.2422 45.5152 12.1186 45.5152 14.3558C45.5152 16.557 44.9239 18.6138 44.037 20.418C43.0392 22.2222 41.8197 23.7017 40.2675 24.676C38.7893 25.6142 37.1633 26.1193 35.5003 25.8668Z" fill="white"/>
<path d="M57.0453 26.0832C54.7171 26.0832 52.7954 24.0986 50.652 19.7324C50.615 20.2015 50.5042 20.6705 50.4672 20.9592C50.3194 21.8252 50.1346 22.4387 49.9498 23.3047C49.5064 25.0728 49.0999 25.8306 47.8064 25.8306C46.6608 25.8306 46.2543 25.3254 46.1065 23.846C45.9956 22.3304 46.2173 19.8767 46.5499 15.8352C46.6978 13.598 47.0304 11.3247 47.4738 9.12353C47.9173 6.99455 48.4716 5.00991 48.989 3.60262C49.5803 2.19532 50.1716 1.29321 50.7259 1.29321C51.502 1.29321 52.4628 1.61797 53.165 2.05099C53.9041 2.52008 54.4214 3.13352 54.3845 3.71087C54.3845 4.25214 53.6084 6.09244 52.9063 8.7266C52.278 10.6752 51.6498 13.0207 51.2802 15.4383C52.5367 14.7527 53.5715 13.9949 54.4584 13.0928C55.641 11.8299 56.3801 10.4226 56.4909 9.15962C56.5279 8.69052 57.0453 8.54618 57.7844 8.65444C58.5235 8.79877 59.3365 9.12353 60.0756 9.70088C60.7778 10.2782 61.2951 10.9638 61.2951 11.8659C61.2951 13.2011 60.5191 14.6445 59.1517 15.9796C58.3018 16.8095 57.304 17.5312 56.0475 18.2168C56.3062 18.6859 56.6018 19.5158 57.0453 20.2375C57.4887 20.9953 58.117 21.5727 58.8561 21.4283C59.2996 21.3201 59.8908 20.5984 60.556 19.7324C61.1843 18.8663 61.8495 17.7477 62.3669 16.7734C62.8473 15.9435 63.4386 15.9435 63.6973 16.4126C63.9929 16.9539 64.1038 17.9642 63.5494 19.2272C62.9951 20.4901 62.1451 22.2222 61.0734 23.5934C59.9278 24.9646 58.6344 26.0832 57.0453 26.0832Z" fill="white"/>
<path d="M66.2102 21.7169C66.8015 21.7169 67.2819 21.3199 67.5406 20.7787C67.7993 20.2374 67.8362 19.5157 67.6514 18.9744C67.2449 17.8558 66.2471 16.9898 65.3233 16.0155C64.3994 15.0412 63.5864 14.103 63.5864 12.8401C63.5864 11.1802 64.8798 9.88117 66.6167 9.26773C68.3536 8.6543 70.46 8.6543 72.16 9.66466C73.1947 10.242 73.4904 11.108 73.4534 11.9741C73.4534 12.8401 73.0839 13.67 72.6774 14.2113C72.2709 14.7886 71.8274 15.0412 71.7165 14.7165C71.5687 14.3196 71.2731 13.7783 70.8666 13.3814C70.46 12.9483 70.0166 12.6236 69.4992 12.6236C68.4275 12.6236 68.2058 13.4174 68.9818 14.067C71.4578 16.0516 72.5295 17.8197 72.5295 20.2735C72.5295 21.6086 72.0491 23.0881 71.0513 24.1706C70.0166 25.3253 68.5014 26.1191 66.395 26.1191C64.8428 26.1191 63.6233 25.4696 62.7364 24.4953C61.8494 23.5211 61.369 22.222 61.2212 20.8147C61.0734 19.4435 61.3321 18.0723 61.9603 16.9537C62.5146 15.9433 63.2907 15.8712 63.9189 16.1599C64.5102 16.4485 64.9907 17.098 64.8428 17.4589C64.4363 18.4332 64.3994 19.4435 64.6581 20.2735C64.9167 21.1395 65.4341 21.7169 66.2102 21.7169Z" fill="white"/>
</svg>
