<svg width="22" height="47" viewBox="0 0 22 47" fill="none" xmlns="http://www.w3.org/2000/svg">
<mask id="path-1-inside-1_2_13" fill="white">
<path fill-rule="evenodd" clip-rule="evenodd" d="M21.0822 11C21.0822 11.1676 21.0782 11.3343 21.0705 11.5H21.0822V36V36.5H21.0705C20.8095 42.0668 16.2135 46.5 10.5822 46.5C4.95078 46.5 0.354825 42.0668 0.0938484 36.5H0.0821533V36V11.5H0.0938484C0.0860807 11.3343 0.0821533 11.1676 0.0821533 11C0.0821533 5.20101 4.78316 0.5 10.5822 0.5C16.3811 0.5 21.0822 5.20101 21.0822 11Z"/>
</mask>
<path d="M21.0705 11.5L20.0716 11.4532L20.0225 12.5H21.0705V11.5ZM21.0822 11.5H22.0822V10.5H21.0822V11.5ZM21.0822 36.5V37.5H22.0822V36.5H21.0822ZM21.0705 36.5V35.5H20.1162L20.0716 36.4532L21.0705 36.5ZM0.0938484 36.5L1.09275 36.4532L1.04807 35.5H0.0938484V36.5ZM0.0821533 36.5H-0.917847V37.5H0.0821533V36.5ZM0.0821533 11.5V10.5H-0.917847V11.5H0.0821533ZM0.0938484 11.5V12.5H1.14183L1.09275 11.4532L0.0938484 11.5ZM22.0694 11.5468C22.0779 11.3655 22.0822 11.1832 22.0822 11H20.0822C20.0822 11.152 20.0786 11.3031 20.0716 11.4532L22.0694 11.5468ZM21.0822 10.5H21.0705V12.5H21.0822V10.5ZM22.0822 36V11.5H20.0822V36H22.0822ZM22.0822 36.5V36H20.0822V36.5H22.0822ZM21.0705 37.5H21.0822V35.5H21.0705V37.5ZM20.0716 36.4532C19.8355 41.489 15.6769 45.5 10.5822 45.5V47.5C16.7501 47.5 21.7835 42.6446 22.0694 36.5468L20.0716 36.4532ZM10.5822 45.5C5.48738 45.5 1.32884 41.489 1.09275 36.4532L-0.905054 36.5468C-0.619186 42.6446 4.41418 47.5 10.5822 47.5V45.5ZM0.0821533 37.5H0.0938484V35.5H0.0821533V37.5ZM-0.917847 36V36.5H1.08215V36H-0.917847ZM-0.917847 11.5V36H1.08215V11.5H-0.917847ZM0.0938484 10.5H0.0821533V12.5H0.0938484V10.5ZM-0.917847 11C-0.917847 11.1832 -0.913553 11.3655 -0.905055 11.5468L1.09275 11.4532C1.08571 11.3031 1.08215 11.152 1.08215 11H-0.917847ZM10.5822 -0.5C4.23088 -0.5 -0.917847 4.64873 -0.917847 11H1.08215C1.08215 5.75329 5.33545 1.5 10.5822 1.5V-0.5ZM22.0822 11C22.0822 4.64873 16.9334 -0.5 10.5822 -0.5V1.5C15.8289 1.5 20.0822 5.75329 20.0822 11H22.0822Z" fill="white" fill-opacity="0.5" mask="url(#path-1-inside-1_2_13)"/>
<path d="M10.7286 37.8536C10.9239 38.0488 11.2404 38.0488 11.4357 37.8536L14.6177 34.6716C14.8129 34.4763 14.8129 34.1597 14.6177 33.9645C14.4224 33.7692 14.1058 33.7692 13.9106 33.9645L11.0822 36.7929L8.25373 33.9645C8.05846 33.7692 7.74188 33.7692 7.54662 33.9645C7.35136 34.1597 7.35136 34.4763 7.54662 34.6716L10.7286 37.8536ZM10.5822 10.5L10.5822 37.5H11.5822L11.5822 10.5H10.5822Z" fill="#FCFCFC"/>
</svg>
